<svg xmlns="http://www.w3.org/2000/svg" xmlns:xlink="http://www.w3.org/1999/xlink" width="500" zoomAndPan="magnify" viewBox="0 0 375 374.999991" height="500" preserveAspectRatio="xMidYMid meet" version="1.0"><defs><clipPath id="2cd6deff26"><path d="M 23.695312 71.472656 L 363.445312 71.472656 L 363.445312 320.472656 L 23.695312 320.472656 Z M 23.695312 71.472656 " clip-rule="nonzero"/></clipPath><clipPath id="c9d155e90a"><path d="M 56 27 L 340.359375 27 L 340.359375 223 L 56 223 Z M 56 27 " clip-rule="nonzero"/></clipPath><clipPath id="32be9af72b"><path d="M 0.695312 0.472656 L 152 0.472656 L 152 249.261719 L 0.695312 249.261719 Z M 0.695312 0.472656 " clip-rule="nonzero"/></clipPath><clipPath id="3468c11119"><rect x="0" width="341" y="0" height="250"/></clipPath><clipPath id="08010b42e5"><path d="M 154.742188 158.078125 L 231.992188 158.078125 L 231.992188 233.828125 L 154.742188 233.828125 Z M 154.742188 158.078125 " clip-rule="nonzero"/></clipPath></defs><rect x="-37.5" width="450" fill="#ffffff" y="-37.499999" height="449.999989" fill-opacity="1"/><rect x="-37.5" width="450" fill="#ffffff" y="-37.499999" height="449.999989" fill-opacity="1"/><g clip-path="url(#2cd6deff26)"><g transform="matrix(1, 0, 0, 1, 23, 71)"><g clip-path="url(#3468c11119)"><path fill="#0025cc" d="M 156.484375 188.5 C 155.226562 188.574219 153.957031 188.625 152.679688 188.625 C 117.460938 188.625 88.90625 160.074219 88.90625 124.855469 C 88.90625 89.636719 117.460938 61.085938 152.679688 61.085938 C 153.957031 61.085938 155.226562 61.136719 156.484375 61.210938 C 123.050781 63.191406 96.546875 90.921875 96.546875 124.855469 C 96.546875 158.789062 123.050781 186.515625 156.484375 188.5 " fill-opacity="1" fill-rule="nonzero"/><g clip-path="url(#c9d155e90a)"><path fill="#000000" d="M 205.402344 69.824219 C 191.945312 57.253906 173.886719 49.546875 154.019531 49.546875 C 113.101562 49.546875 79.808594 82.179688 78.742188 122.835938 C 78.722656 123.503906 78.714844 124.179688 78.714844 124.855469 C 78.714844 166.445312 112.429688 200.160156 154.019531 200.160156 C 173.886719 200.160156 191.945312 192.453125 205.402344 179.882812 L 277.660156 179.882812 L 227.839844 188.382812 C 209.980469 209.121094 183.535156 222.25 154.019531 222.25 C 100.226562 222.25 56.625 178.644531 56.625 124.855469 C 56.625 71.066406 100.226562 27.460938 154.019531 27.460938 C 183.535156 27.460938 209.980469 40.589844 227.839844 61.324219 L 340.328125 69.824219 L 205.402344 69.824219 " fill-opacity="1" fill-rule="nonzero"/></g><path fill="#0025cc" d="M 224.425781 199.679688 C 217.128906 209.355469 208.453125 217.933594 198.691406 225.113281 C 198.402344 224.992188 198.113281 224.863281 197.824219 224.722656 L 190.109375 221.054688 C 202.765625 216.304688 214.445312 209.074219 224.425781 199.679688 " fill-opacity="1" fill-rule="nonzero"/><g clip-path="url(#32be9af72b)"><path fill="#0025cc" d="M 51.269531 124.855469 C 51.269531 180.546875 95.808594 226.03125 151.136719 227.5625 L 144.253906 246.914062 C 144.144531 247.226562 144.015625 247.519531 143.894531 247.820312 C 137.757812 248.75 131.472656 249.238281 125.078125 249.238281 C 118.679688 249.238281 112.398438 248.75 106.261719 247.820312 C 106.140625 247.519531 106.007812 247.226562 105.898438 246.914062 L 98.957031 227.394531 C 94.917969 216.03125 81.933594 210.652344 71.042969 215.828125 L 52.328125 224.722656 C 52.039062 224.863281 51.753906 224.992188 51.464844 225.113281 C 41.292969 217.632812 32.300781 208.640625 24.820312 198.46875 C 24.941406 198.179688 25.070312 197.890625 25.207031 197.601562 L 34.101562 178.890625 C 39.28125 167.996094 33.902344 155.015625 22.539062 150.976562 L 3.019531 144.035156 C 2.707031 143.921875 2.414062 143.792969 2.113281 143.671875 C 1.179688 137.535156 0.695312 131.253906 0.695312 124.855469 C 0.695312 118.457031 1.179688 112.175781 2.113281 106.039062 C 2.414062 105.917969 2.707031 105.789062 3.019531 105.675781 L 22.539062 98.734375 C 33.902344 94.695312 39.28125 81.710938 34.101562 70.820312 L 25.207031 52.105469 C 25.070312 51.820312 24.941406 51.527344 24.820312 51.242188 C 32.300781 41.070312 41.292969 32.078125 51.464844 24.597656 C 51.753906 24.71875 52.039062 24.847656 52.328125 24.984375 L 71.042969 33.878906 C 81.933594 39.058594 94.917969 33.679688 98.957031 22.316406 L 105.898438 2.796875 C 106.007812 2.484375 106.140625 2.191406 106.261719 1.890625 C 112.398438 0.960938 118.679688 0.472656 125.078125 0.472656 C 131.472656 0.472656 137.757812 0.960938 143.894531 1.890625 C 144.015625 2.191406 144.144531 2.484375 144.253906 2.796875 L 151.136719 22.148438 C 95.808594 23.679688 51.269531 69.160156 51.269531 124.855469 " fill-opacity="1" fill-rule="nonzero"/></g><path fill="#0025cc" d="M 190.109375 28.652344 L 197.824219 24.984375 C 198.113281 24.847656 198.402344 24.71875 198.691406 24.597656 C 208.453125 31.777344 217.121094 40.351562 224.417969 50.019531 C 214.441406 40.632812 202.761719 33.402344 190.109375 28.652344 " fill-opacity="1" fill-rule="nonzero"/></g></g></g><g clip-path="url(#08010b42e5)"><path fill="#000000" d="M 164.410156 158.078125 L 163.445312 160.019531 L 173.578125 165.847656 C 173.578125 170.703125 171.648438 174.585938 167.304688 177.015625 L 157.171875 171.1875 L 156.6875 172.160156 C 159.101562 179.441406 163.925781 184.296875 173.578125 184.296875 C 175.992188 184.296875 183.230469 191.582031 187.09375 195.46875 L 194.816406 187.699219 C 190.953125 183.8125 182.265625 175.074219 182.265625 172.644531 C 182.265625 163.90625 179.855469 158.078125 164.410156 158.078125 Z M 224.738281 160.503906 L 215.085938 167.304688 L 214.121094 171.1875 L 186.128906 199.351562 L 182.265625 196.921875 L 180.335938 198.867188 C 180.335938 204.691406 173.578125 207.605469 170.683594 207.605469 L 154.757812 223.628906 C 154.757812 228.484375 160.066406 233.828125 164.890625 233.828125 L 180.820312 217.804688 C 180.820312 214.890625 183.714844 208.09375 189.507812 208.09375 L 191.4375 206.148438 L 189.023438 202.265625 L 217.015625 174.101562 L 220.875 173.128906 L 227.632812 163.417969 Z M 200.605469 193.523438 L 192.882812 201.292969 C 198.675781 207.121094 206.398438 214.890625 206.398438 217.316406 C 206.398438 226.058594 208.8125 231.886719 224.253906 231.886719 L 225.21875 229.941406 L 215.085938 224.117188 C 215.085938 219.261719 217.015625 215.375 221.359375 212.949219 L 231.492188 218.773438 L 231.976562 217.804688 C 229.5625 210.519531 224.738281 205.664062 215.085938 205.664062 C 212.671875 205.664062 206.398438 199.351562 200.605469 193.523438 Z M 200.605469 193.523438 " fill-opacity="1" fill-rule="nonzero"/></g></svg>