<svg xmlns="http://www.w3.org/2000/svg" xmlns:xlink="http://www.w3.org/1999/xlink" width="500" zoomAndPan="magnify" viewBox="0 0 375 374.999991" height="500" preserveAspectRatio="xMidYMid meet" version="1.0"><defs><g/><clipPath id="672b6044b7"><path d="M 14.03125 87.050781 L 246.53125 87.050781 L 246.53125 257.300781 L 14.03125 257.300781 Z M 14.03125 87.050781 " clip-rule="nonzero"/></clipPath><clipPath id="6b6c0c7f0c"><path d="M 38 18 L 232.53125 18 L 232.53125 152 L 38 152 Z M 38 18 " clip-rule="nonzero"/></clipPath><clipPath id="54d464b2a3"><path d="M 0.03125 0.0976562 L 104 0.0976562 L 104 170.300781 L 0.03125 170.300781 Z M 0.03125 0.0976562 " clip-rule="nonzero"/></clipPath><clipPath id="0f88905d1f"><rect x="0" width="233" y="0" height="171"/></clipPath><clipPath id="3f10c1146e"><rect x="0" width="250" y="0" height="76"/></clipPath><clipPath id="67d75b6221"><path d="M 0.078125 3 L 9 3 L 9 13 L 0.078125 13 Z M 0.078125 3 " clip-rule="nonzero"/></clipPath><clipPath id="7d0db4b0d1"><rect x="0" width="85" y="0" height="17"/></clipPath></defs><rect x="-37.5" width="450" fill="#ffffff" y="-37.499999" height="449.999989" fill-opacity="1"/><rect x="-37.5" width="450" fill="#ffffff" y="-37.499999" height="449.999989" fill-opacity="1"/><g clip-path="url(#672b6044b7)"><g transform="matrix(1, 0, 0, 1, 14, 87)"><g clip-path="url(#0f88905d1f)"><path fill="#0025cc" d="M 106.679688 128.761719 C 105.816406 128.8125 104.949219 128.847656 104.074219 128.847656 C 79.960938 128.847656 60.417969 109.300781 60.417969 85.191406 C 60.417969 61.082031 79.960938 41.539062 104.074219 41.539062 C 104.949219 41.539062 105.816406 41.574219 106.679688 41.621094 C 83.789062 42.980469 65.648438 61.964844 65.648438 85.191406 C 65.648438 108.421875 83.789062 127.40625 106.679688 128.761719 " fill-opacity="1" fill-rule="nonzero"/><g clip-path="url(#6b6c0c7f0c)"><path fill="#000000" d="M 140.164062 47.519531 C 130.953125 38.914062 118.589844 33.640625 104.988281 33.640625 C 76.980469 33.640625 54.1875 55.976562 53.457031 83.808594 C 53.445312 84.269531 53.4375 84.730469 53.4375 85.191406 C 53.4375 113.664062 76.519531 136.742188 104.988281 136.742188 C 118.589844 136.742188 130.953125 131.46875 140.164062 122.863281 L 189.628906 122.863281 L 155.523438 128.683594 C 143.296875 142.878906 125.195312 151.867188 104.988281 151.867188 C 68.167969 151.867188 38.316406 122.015625 38.316406 85.191406 C 38.316406 48.371094 68.167969 18.519531 104.988281 18.519531 C 125.195312 18.519531 143.296875 27.507812 155.523438 41.703125 L 232.53125 47.519531 L 140.164062 47.519531 " fill-opacity="1" fill-rule="nonzero"/></g><path fill="#0025cc" d="M 153.1875 136.414062 C 148.191406 143.039062 142.253906 148.910156 135.570312 153.824219 C 135.371094 153.742188 135.175781 153.652344 134.976562 153.558594 L 129.695312 151.046875 C 138.359375 147.796875 146.355469 142.84375 153.1875 136.414062 " fill-opacity="1" fill-rule="nonzero"/><g clip-path="url(#54d464b2a3)"><path fill="#0025cc" d="M 34.648438 85.191406 C 34.648438 123.316406 65.140625 154.453125 103.015625 155.503906 L 98.304688 168.75 C 98.230469 168.964844 98.140625 169.164062 98.058594 169.371094 C 93.855469 170.007812 89.554688 170.339844 85.175781 170.339844 C 80.796875 170.339844 76.496094 170.007812 72.296875 169.371094 C 72.214844 169.164062 72.125 168.964844 72.046875 168.75 L 67.296875 155.386719 C 64.53125 147.605469 55.644531 143.925781 48.1875 147.46875 L 35.375 153.558594 C 35.179688 153.652344 34.980469 153.742188 34.785156 153.824219 C 27.820312 148.703125 21.664062 142.546875 16.542969 135.585938 C 16.628906 135.390625 16.714844 135.191406 16.808594 134.992188 L 22.898438 122.183594 C 26.445312 114.726562 22.761719 105.839844 14.984375 103.074219 L 1.621094 98.320312 C 1.40625 98.246094 1.207031 98.15625 1 98.074219 C 0.363281 93.871094 0.03125 89.570312 0.03125 85.191406 C 0.03125 80.8125 0.363281 76.511719 1 72.3125 C 1.207031 72.230469 1.40625 72.140625 1.621094 72.0625 L 14.984375 67.3125 C 22.761719 64.546875 26.445312 55.660156 22.898438 48.203125 L 16.808594 35.390625 C 16.714844 35.195312 16.628906 34.996094 16.542969 34.800781 C 21.664062 27.835938 27.820312 21.679688 34.785156 16.558594 C 34.980469 16.644531 35.179688 16.730469 35.375 16.824219 L 48.1875 22.914062 C 55.644531 26.457031 64.53125 22.777344 67.296875 14.996094 L 72.046875 1.636719 C 72.125 1.421875 72.214844 1.222656 72.296875 1.015625 C 76.496094 0.378906 80.796875 0.046875 85.175781 0.046875 C 89.554688 0.046875 93.855469 0.378906 98.058594 1.015625 C 98.140625 1.222656 98.230469 1.421875 98.304688 1.636719 L 103.015625 14.882812 C 65.140625 15.929688 34.648438 47.066406 34.648438 85.191406 " fill-opacity="1" fill-rule="nonzero"/></g><path fill="#0025cc" d="M 129.695312 19.335938 L 134.976562 16.824219 C 135.175781 16.730469 135.371094 16.644531 135.570312 16.558594 C 142.253906 21.472656 148.1875 27.34375 153.183594 33.964844 C 146.351562 27.535156 138.359375 22.585938 129.695312 19.335938 " fill-opacity="1" fill-rule="nonzero"/></g></g></g><g transform="matrix(1, 0, 0, 1, 103, 138)"><g clip-path="url(#3f10c1146e)"><g fill="#0025cc" fill-opacity="1"><g transform="translate(0.242771, 56.356027)"><g><path d="M 3.8125 -44.421875 L 30.46875 -44.421875 C 34.90625 -44.421875 38.128906 -43.414062 40.140625 -41.40625 C 42.148438 -39.40625 43.15625 -36.179688 43.15625 -31.734375 L 43.15625 -26.015625 C 43.15625 -22.503906 42.570312 -19.773438 41.40625 -17.828125 C 40.25 -15.890625 38.398438 -14.601562 35.859375 -13.96875 L 43.796875 0 L 31.421875 0 L 24.125 -13.328125 L 15.234375 -13.328125 L 15.234375 0 L 3.8125 0 Z M 31.734375 -31.734375 C 31.734375 -34.273438 30.460938 -35.546875 27.921875 -35.546875 L 15.234375 -35.546875 L 15.234375 -22.21875 L 27.921875 -22.21875 C 30.460938 -22.21875 31.734375 -23.484375 31.734375 -26.015625 Z M 31.734375 -31.734375 "/></g></g></g><g fill="#0025cc" fill-opacity="1"><g transform="translate(45.940144, 56.356027)"><g><path d="M 39.03125 0 L 3.8125 0 L 3.8125 -44.421875 L 39.03125 -44.421875 L 39.03125 -35.546875 L 15.234375 -35.546875 L 15.234375 -26.96875 L 33.953125 -26.96875 L 33.953125 -18.09375 L 15.234375 -18.09375 L 15.234375 -8.890625 L 39.03125 -8.890625 Z M 39.03125 0 "/></g></g></g><g fill="#0025cc" fill-opacity="1"><g transform="translate(86.242679, 56.356027)"><g><path d="M 3.8125 -44.421875 L 30.46875 -44.421875 C 34.90625 -44.421875 38.128906 -43.414062 40.140625 -41.40625 C 42.148438 -39.40625 43.15625 -36.179688 43.15625 -31.734375 L 43.15625 -25.390625 C 43.15625 -20.941406 42.148438 -17.710938 40.140625 -15.703125 C 38.128906 -13.691406 34.90625 -12.6875 30.46875 -12.6875 L 15.234375 -12.6875 L 15.234375 0 L 3.8125 0 Z M 31.734375 -31.734375 C 31.734375 -34.273438 30.460938 -35.546875 27.921875 -35.546875 L 15.234375 -35.546875 L 15.234375 -21.578125 L 27.921875 -21.578125 C 30.460938 -21.578125 31.734375 -22.847656 31.734375 -25.390625 Z M 31.734375 -31.734375 "/></g></g></g><g fill="#0025cc" fill-opacity="1"><g transform="translate(131.305344, 56.356027)"><g><path d="M 11.734375 0 L -0.640625 0 L 16.1875 -44.421875 L 28.875 -44.421875 L 45.703125 0 L 33.328125 0 L 30.46875 -7.9375 L 14.59375 -7.9375 Z M 17.453125 -16.1875 L 27.609375 -16.1875 L 22.53125 -31.09375 Z M 17.453125 -16.1875 "/></g></g></g><g fill="#0025cc" fill-opacity="1"><g transform="translate(176.36801, 56.356027)"><g><path d="M 24.75 0 L 1.90625 0 L 1.90625 -8.890625 L 7.609375 -8.890625 L 7.609375 -35.546875 L 1.90625 -35.546875 L 1.90625 -44.421875 L 24.75 -44.421875 L 24.75 -35.546875 L 19.046875 -35.546875 L 19.046875 -8.890625 L 24.75 -8.890625 Z M 24.75 0 "/></g></g></g><g fill="#0025cc" fill-opacity="1"><g transform="translate(203.024807, 56.356027)"><g><path d="M 3.8125 -44.421875 L 30.46875 -44.421875 C 34.90625 -44.421875 38.128906 -43.414062 40.140625 -41.40625 C 42.148438 -39.40625 43.15625 -36.179688 43.15625 -31.734375 L 43.15625 -26.015625 C 43.15625 -22.503906 42.570312 -19.773438 41.40625 -17.828125 C 40.25 -15.890625 38.398438 -14.601562 35.859375 -13.96875 L 43.796875 0 L 31.421875 0 L 24.125 -13.328125 L 15.234375 -13.328125 L 15.234375 0 L 3.8125 0 Z M 31.734375 -31.734375 C 31.734375 -34.273438 30.460938 -35.546875 27.921875 -35.546875 L 15.234375 -35.546875 L 15.234375 -22.21875 L 27.921875 -22.21875 C 30.460938 -22.21875 31.734375 -23.484375 31.734375 -26.015625 Z M 31.734375 -31.734375 "/></g></g></g></g></g><g transform="matrix(1, 0, 0, 1, 208, 204)"><g clip-path="url(#7d0db4b0d1)"><g clip-path="url(#67d75b6221)"><g fill="#000000" fill-opacity="1"><g transform="translate(0.318013, 12.422362)"><g><path d="M 3.984375 0.15625 C 3.273438 0.15625 2.59375 0.0625 1.9375 -0.125 C 1.28125 -0.320312 0.753906 -0.570312 0.359375 -0.875 L 1.0625 -2.421875 C 1.4375 -2.148438 1.882812 -1.925781 2.40625 -1.75 C 2.9375 -1.582031 3.46875 -1.5 4 -1.5 C 4.582031 -1.5 5.007812 -1.582031 5.28125 -1.75 C 5.5625 -1.925781 5.703125 -2.160156 5.703125 -2.453125 C 5.703125 -2.660156 5.617188 -2.832031 5.453125 -2.96875 C 5.296875 -3.113281 5.085938 -3.226562 4.828125 -3.3125 C 4.566406 -3.40625 4.21875 -3.5 3.78125 -3.59375 C 3.101562 -3.757812 2.546875 -3.921875 2.109375 -4.078125 C 1.679688 -4.242188 1.3125 -4.503906 1 -4.859375 C 0.6875 -5.210938 0.53125 -5.6875 0.53125 -6.28125 C 0.53125 -6.800781 0.671875 -7.269531 0.953125 -7.6875 C 1.234375 -8.101562 1.65625 -8.4375 2.21875 -8.6875 C 2.78125 -8.9375 3.46875 -9.0625 4.28125 -9.0625 C 4.851562 -9.0625 5.410156 -8.992188 5.953125 -8.859375 C 6.492188 -8.722656 6.96875 -8.523438 7.375 -8.265625 L 6.734375 -6.703125 C 5.910156 -7.171875 5.09375 -7.40625 4.28125 -7.40625 C 3.695312 -7.40625 3.265625 -7.3125 2.984375 -7.125 C 2.710938 -6.9375 2.578125 -6.691406 2.578125 -6.390625 C 2.578125 -6.078125 2.734375 -5.847656 3.046875 -5.703125 C 3.367188 -5.554688 3.859375 -5.410156 4.515625 -5.265625 C 5.191406 -5.109375 5.742188 -4.945312 6.171875 -4.78125 C 6.609375 -4.625 6.984375 -4.367188 7.296875 -4.015625 C 7.609375 -3.671875 7.765625 -3.203125 7.765625 -2.609375 C 7.765625 -2.097656 7.617188 -1.628906 7.328125 -1.203125 C 7.046875 -0.785156 6.617188 -0.453125 6.046875 -0.203125 C 5.484375 0.0351562 4.796875 0.15625 3.984375 0.15625 Z M 3.984375 0.15625 "/></g></g></g></g><g fill="#000000" fill-opacity="1"><g transform="translate(10.607756, 12.422362)"><g><path d="M 7.953125 -1.65625 L 7.953125 0 L 1.0625 0 L 1.0625 -8.90625 L 7.78125 -8.90625 L 7.78125 -7.25 L 3.109375 -7.25 L 3.109375 -5.3125 L 7.234375 -5.3125 L 7.234375 -3.71875 L 3.109375 -3.71875 L 3.109375 -1.65625 Z M 7.953125 -1.65625 "/></g></g></g><g fill="#000000" fill-opacity="1"><g transform="translate(21.31724, 12.422362)"><g><path d="M 6.734375 0 L 5.015625 -2.484375 L 3.109375 -2.484375 L 3.109375 0 L 1.0625 0 L 1.0625 -8.90625 L 4.90625 -8.90625 C 5.695312 -8.90625 6.378906 -8.769531 6.953125 -8.5 C 7.535156 -8.238281 7.984375 -7.867188 8.296875 -7.390625 C 8.617188 -6.910156 8.78125 -6.335938 8.78125 -5.671875 C 8.78125 -5.015625 8.617188 -4.445312 8.296875 -3.96875 C 7.984375 -3.488281 7.53125 -3.117188 6.9375 -2.859375 L 8.9375 0 Z M 6.6875 -5.671875 C 6.6875 -6.171875 6.523438 -6.550781 6.203125 -6.8125 C 5.878906 -7.082031 5.410156 -7.21875 4.796875 -7.21875 L 3.109375 -7.21875 L 3.109375 -4.125 L 4.796875 -4.125 C 5.410156 -4.125 5.878906 -4.257812 6.203125 -4.53125 C 6.523438 -4.800781 6.6875 -5.179688 6.6875 -5.671875 Z M 6.6875 -5.671875 "/></g></g></g><g fill="#000000" fill-opacity="1"><g transform="translate(32.840747, 12.422362)"><g><path d="M 9.609375 -8.90625 L 5.765625 0 L 3.734375 0 L -0.109375 -8.90625 L 2.109375 -8.90625 L 4.828125 -2.546875 L 7.5625 -8.90625 Z M 9.609375 -8.90625 "/></g></g></g><g fill="#000000" fill-opacity="1"><g transform="translate(44.504152, 12.422362)"><g><path d="M 1.0625 -8.90625 L 3.109375 -8.90625 L 3.109375 0 L 1.0625 0 Z M 1.0625 -8.90625 "/></g></g></g><g fill="#000000" fill-opacity="1"><g transform="translate(50.850975, 12.422362)"><g><path d="M 5.3125 0.15625 C 4.40625 0.15625 3.582031 -0.0390625 2.84375 -0.4375 C 2.113281 -0.832031 1.539062 -1.378906 1.125 -2.078125 C 0.707031 -2.773438 0.5 -3.566406 0.5 -4.453125 C 0.5 -5.335938 0.707031 -6.128906 1.125 -6.828125 C 1.539062 -7.523438 2.113281 -8.070312 2.84375 -8.46875 C 3.582031 -8.863281 4.410156 -9.0625 5.328125 -9.0625 C 6.097656 -9.0625 6.796875 -8.921875 7.421875 -8.640625 C 8.046875 -8.367188 8.566406 -7.984375 8.984375 -7.484375 L 7.671875 -6.25 C 7.066406 -6.945312 6.320312 -7.296875 5.4375 -7.296875 C 4.882812 -7.296875 4.390625 -7.175781 3.953125 -6.9375 C 3.523438 -6.695312 3.1875 -6.359375 2.9375 -5.921875 C 2.695312 -5.492188 2.578125 -5.003906 2.578125 -4.453125 C 2.578125 -3.898438 2.695312 -3.40625 2.9375 -2.96875 C 3.1875 -2.539062 3.523438 -2.207031 3.953125 -1.96875 C 4.390625 -1.726562 4.882812 -1.609375 5.4375 -1.609375 C 6.320312 -1.609375 7.066406 -1.957031 7.671875 -2.65625 L 8.984375 -1.4375 C 8.566406 -0.914062 8.039062 -0.519531 7.40625 -0.25 C 6.78125 0.0195312 6.082031 0.15625 5.3125 0.15625 Z M 5.3125 0.15625 "/></g></g></g><g fill="#000000" fill-opacity="1"><g transform="translate(62.349043, 12.422362)"><g><path d="M 7.953125 -1.65625 L 7.953125 0 L 1.0625 0 L 1.0625 -8.90625 L 7.78125 -8.90625 L 7.78125 -7.25 L 3.109375 -7.25 L 3.109375 -5.3125 L 7.234375 -5.3125 L 7.234375 -3.71875 L 3.109375 -3.71875 L 3.109375 -1.65625 Z M 7.953125 -1.65625 "/></g></g></g><g fill="#000000" fill-opacity="1"><g transform="translate(73.058526, 12.422362)"><g><path d="M 3.984375 0.15625 C 3.273438 0.15625 2.59375 0.0625 1.9375 -0.125 C 1.28125 -0.320312 0.753906 -0.570312 0.359375 -0.875 L 1.0625 -2.421875 C 1.4375 -2.148438 1.882812 -1.925781 2.40625 -1.75 C 2.9375 -1.582031 3.46875 -1.5 4 -1.5 C 4.582031 -1.5 5.007812 -1.582031 5.28125 -1.75 C 5.5625 -1.925781 5.703125 -2.160156 5.703125 -2.453125 C 5.703125 -2.660156 5.617188 -2.832031 5.453125 -2.96875 C 5.296875 -3.113281 5.085938 -3.226562 4.828125 -3.3125 C 4.566406 -3.40625 4.21875 -3.5 3.78125 -3.59375 C 3.101562 -3.757812 2.546875 -3.921875 2.109375 -4.078125 C 1.679688 -4.242188 1.3125 -4.503906 1 -4.859375 C 0.6875 -5.210938 0.53125 -5.6875 0.53125 -6.28125 C 0.53125 -6.800781 0.671875 -7.269531 0.953125 -7.6875 C 1.234375 -8.101562 1.65625 -8.4375 2.21875 -8.6875 C 2.78125 -8.9375 3.46875 -9.0625 4.28125 -9.0625 C 4.851562 -9.0625 5.410156 -8.992188 5.953125 -8.859375 C 6.492188 -8.722656 6.96875 -8.523438 7.375 -8.265625 L 6.734375 -6.703125 C 5.910156 -7.171875 5.09375 -7.40625 4.28125 -7.40625 C 3.695312 -7.40625 3.265625 -7.3125 2.984375 -7.125 C 2.710938 -6.9375 2.578125 -6.691406 2.578125 -6.390625 C 2.578125 -6.078125 2.734375 -5.847656 3.046875 -5.703125 C 3.367188 -5.554688 3.859375 -5.410156 4.515625 -5.265625 C 5.191406 -5.109375 5.742188 -4.945312 6.171875 -4.78125 C 6.609375 -4.625 6.984375 -4.367188 7.296875 -4.015625 C 7.609375 -3.671875 7.765625 -3.203125 7.765625 -2.609375 C 7.765625 -2.097656 7.617188 -1.628906 7.328125 -1.203125 C 7.046875 -0.785156 6.617188 -0.453125 6.046875 -0.203125 C 5.484375 0.0351562 4.796875 0.15625 3.984375 0.15625 Z M 3.984375 0.15625 "/></g></g></g></g></g></svg>